<?xml version="1.0" encoding="UTF-8"?>
<svg id="Camada_1" xmlns="http://www.w3.org/2000/svg" version="1.1" viewBox="0 0 59.6 84.7">
  <!-- Generator: Adobe Illustrator 29.3.1, SVG Export Plug-In . SVG Version: 2.1.0 Build 151)  -->
  <defs>
    <style>
      .st0 {
        fill: none;
        stroke: #2d2d2d;
        stroke-linecap: round;
        stroke-linejoin: round;
      }
    </style>
  </defs>
  <path class="st0" d="M14.8,46.6c8.3-2.8,16.6-1.7,22.3-.3,4.2,1,8.4,2.3,12.2,4.5,5.3,3,9.7,8.2,9.8,14.6,0,4.6-2,9-5.3,12.2-3.3,3.2-7.5,5.3-12.1,6.1-7.4,1.4-15.3-.5-21.6-4.6-6.4-4.1-11.2-10.1-14.4-17C1.8,53.9.2,44.5.6,35.3,1,23.9,2.7,9.2,11.1.5"/>
  <path class="st0" d="M9.9,6c-.3-2,.6-3.6,1.2-5.5-1.5.8-3,1.6-4.5,2.6"/>
  <path d="M19.6,59.1c2.4,0,4.1,1.4,4.1,3.7s-1.6,3.8-4.2,3.8-2.7-.5-3.3-1.3v1.2h-1.3v-10h1.5v3.7c.6-.7,1.8-1.1,3.2-1.1ZM19.3,65.4c1.8,0,2.9-1,2.9-2.6s-1.1-2.5-2.9-2.5-3,.9-3,2.5,1.3,2.6,3,2.6ZM33.8,65.4h.5v1.1h-1c-1,0-1.5-.4-1.5-1.1-.6.8-1.7,1.3-3.5,1.3s-3.2-.7-3.2-2.1.8-2,3.1-2.2l2.4-.2c.8,0,1-.2,1-.6h0c0-.8-.4-1.3-2.3-1.3s-2.2.3-2.3,1.2h-1.5c.2-1.6,1.3-2.4,3.9-2.4s3.7.8,3.7,2.5v3.3c0,.4.1.6.7.6ZM28.5,65.6c1.7,0,2.9-.8,3-1.7v-1c-.1,0-.3,0-.4,0l-2.6.3c-1.5.2-2,.4-2,1.2s.7,1.1,2,1.1ZM39.6,66.7c-2.7,0-4.4-1.3-4.4-3.8s1.7-3.9,4.4-3.9,3.7.9,4,2.6h-1.4c-.3-1-1.1-1.4-2.5-1.4s-2.9,1-2.9,2.6,1.1,2.6,2.9,2.6,2.3-.6,2.5-1.6h1.4c-.3,1.7-1.7,2.8-4,2.8ZM53.3,59.3l-3.8,2.7,4,4.5h-1.8l-2.2-2.4-1.1-1.3-1.7,1.1v2.6h-1.5v-10h1.5v6c0,0,4.5-3.3,4.5-3.3h2Z"/>
</svg>